<mxfile host="65bd71144e" compressed="false">
    <diagram id="86R6ZRfhnQo9sD8B5-7s" name="Page-1">
        <mxGraphModel dx="1730" dy="2060" grid="1" gridSize="10" guides="1" tooltips="1" connect="1" arrows="1" fold="1" page="1" pageScale="1" pageWidth="827" pageHeight="1169" background="#161923" math="0" shadow="0">
            <root>
                <mxCell id="0"/>
                <mxCell id="1" parent="0"/>
                <mxCell id="140" value="" style="rounded=0;whiteSpace=wrap;html=1;labelBackgroundColor=none;fontSize=14;fontColor=#333333;strokeColor=#FFFFFF;strokeWidth=2;fillColor=none;dashed=1;" parent="1" vertex="1">
                    <mxGeometry x="150" y="75" width="650" height="585" as="geometry"/>
                </mxCell>
                <mxCell id="96" value="Timer" style="rounded=0;whiteSpace=wrap;html=1;fontFamily=Helvetica;fontSize=14;fontColor=#333333;strokeColor=none;strokeWidth=3;fillColor=#f5f5f5;" parent="1" vertex="1">
                    <mxGeometry x="240" y="135" width="120" height="120" as="geometry"/>
                </mxCell>
                <mxCell id="97" value="Swapchain" style="rounded=0;whiteSpace=wrap;html=1;fontFamily=Helvetica;fontSize=14;fontColor=#333333;strokeColor=none;strokeWidth=3;fillColor=#f5f5f5;" parent="1" vertex="1">
                    <mxGeometry x="480" y="135" width="120" height="120" as="geometry"/>
                </mxCell>
                <mxCell id="100" style="edgeStyle=none;rounded=0;html=1;exitX=1;exitY=0.25;exitDx=0;exitDy=0;fontColor=#333333;strokeColor=#FFFFFF;strokeWidth=2;entryX=0;entryY=0.25;entryDx=0;entryDy=0;" parent="1" edge="1">
                    <mxGeometry relative="1" as="geometry">
                        <mxPoint x="360" y="195" as="sourcePoint"/>
                        <mxPoint x="480" y="195" as="targetPoint"/>
                    </mxGeometry>
                </mxCell>
                <mxCell id="102" value="&lt;span style=&quot;font-size: 14px&quot;&gt;IDX_0 / IDX_1&lt;/span&gt;" style="text;html=1;strokeColor=none;fillColor=none;align=center;verticalAlign=middle;whiteSpace=wrap;rounded=0;fontFamily=Helvetica;fontSize=14;fontColor=#FFFFFF;strokeWidth=2;" parent="1" vertex="1">
                    <mxGeometry x="360" y="175" width="100" height="20" as="geometry"/>
                </mxCell>
                <mxCell id="104" style="edgeStyle=none;rounded=0;html=1;exitX=1;exitY=0.25;exitDx=0;exitDy=0;fontColor=#333333;strokeColor=#FFFFFF;strokeWidth=2;entryX=0.167;entryY=0.251;entryDx=0;entryDy=0;entryPerimeter=0;" parent="1" target="143" edge="1">
                    <mxGeometry relative="1" as="geometry">
                        <mxPoint x="600" y="165" as="sourcePoint"/>
                        <mxPoint x="730" y="295" as="targetPoint"/>
                        <Array as="points">
                            <mxPoint x="730" y="165"/>
                        </Array>
                    </mxGeometry>
                </mxCell>
                <mxCell id="105" value="&lt;span style=&quot;font-size: 14px&quot;&gt;MODE&lt;/span&gt;" style="text;html=1;strokeColor=none;fillColor=none;align=center;verticalAlign=middle;whiteSpace=wrap;rounded=0;fontFamily=Helvetica;fontSize=14;fontColor=#FFFFFF;strokeWidth=2;" parent="1" vertex="1">
                    <mxGeometry x="600" y="145" width="60" height="20" as="geometry"/>
                </mxCell>
                <mxCell id="106" style="edgeStyle=none;rounded=0;html=1;exitX=1;exitY=0.75;exitDx=0;exitDy=0;fontColor=#333333;strokeColor=#FFFFFF;strokeWidth=2;" parent="1" edge="1">
                    <mxGeometry relative="1" as="geometry">
                        <mxPoint x="600" y="195" as="sourcePoint"/>
                        <mxPoint x="180" y="474" as="targetPoint"/>
                        <Array as="points">
                            <mxPoint x="700" y="195"/>
                            <mxPoint x="700" y="300"/>
                            <mxPoint x="180" y="300"/>
                        </Array>
                    </mxGeometry>
                </mxCell>
                <mxCell id="108" value="" style="edgeStyle=none;html=1;" parent="1" source="107" target="97" edge="1">
                    <mxGeometry relative="1" as="geometry"/>
                </mxCell>
                <mxCell id="107" value="&lt;span style=&quot;font-size: 14px&quot;&gt;SEGMENT&lt;/span&gt;" style="text;html=1;strokeColor=none;fillColor=none;align=center;verticalAlign=middle;whiteSpace=wrap;rounded=0;fontFamily=Helvetica;fontSize=14;fontColor=#FFFFFF;strokeWidth=2;" parent="1" vertex="1">
                    <mxGeometry x="600" y="175" width="80" height="20" as="geometry"/>
                </mxCell>
                <mxCell id="109" style="edgeStyle=none;rounded=0;html=1;exitX=1;exitY=0.75;exitDx=0;exitDy=0;fontColor=#333333;strokeColor=#FFFFFF;strokeWidth=2;" parent="1" edge="1">
                    <mxGeometry relative="1" as="geometry">
                        <mxPoint x="600" y="225" as="sourcePoint"/>
                        <mxPoint x="160" y="474" as="targetPoint"/>
                        <Array as="points">
                            <mxPoint x="670" y="225"/>
                            <mxPoint x="670" y="280"/>
                            <mxPoint x="160" y="280"/>
                        </Array>
                    </mxGeometry>
                </mxCell>
                <mxCell id="110" value="&lt;span style=&quot;font-size: 14px&quot;&gt;IDX_0/IDX_1&lt;/span&gt;" style="text;html=1;strokeColor=none;fillColor=none;align=center;verticalAlign=middle;whiteSpace=wrap;rounded=0;fontFamily=Helvetica;fontSize=14;fontColor=#FFFFFF;strokeWidth=2;" parent="1" vertex="1">
                    <mxGeometry x="600" y="205" width="90" height="20" as="geometry"/>
                </mxCell>
                <mxCell id="111" value="&lt;i style=&quot;font-size: 14px;&quot;&gt;SETTINGS&lt;/i&gt;" style="text;html=1;strokeColor=none;fillColor=none;align=right;verticalAlign=middle;whiteSpace=wrap;rounded=0;labelBackgroundColor=none;fontSize=14;fontColor=#FFFFFF;" parent="1" vertex="1">
                    <mxGeometry x="40" y="75" width="80" height="40" as="geometry"/>
                </mxCell>
                <mxCell id="112" style="edgeStyle=none;rounded=0;html=1;exitX=1;exitY=0.5;exitDx=0;exitDy=0;fontColor=#333333;strokeColor=#FFFFFF;strokeWidth=2;entryX=0.5;entryY=0;entryDx=0;entryDy=0;" parent="1" source="111" target="96" edge="1">
                    <mxGeometry relative="1" as="geometry">
                        <mxPoint x="180" y="-275" as="sourcePoint"/>
                        <mxPoint x="520" y="-215.00000000000023" as="targetPoint"/>
                        <Array as="points">
                            <mxPoint x="300" y="95"/>
                        </Array>
                    </mxGeometry>
                </mxCell>
                <mxCell id="113" style="edgeStyle=none;rounded=0;html=1;exitX=1;exitY=0.5;exitDx=0;exitDy=0;fontColor=#333333;strokeColor=#FFFFFF;strokeWidth=2;entryX=0.5;entryY=0;entryDx=0;entryDy=0;" parent="1" source="111" target="97" edge="1">
                    <mxGeometry relative="1" as="geometry">
                        <mxPoint x="180" y="105" as="sourcePoint"/>
                        <mxPoint x="310" y="145.0000000000001" as="targetPoint"/>
                        <Array as="points">
                            <mxPoint x="540" y="95"/>
                        </Array>
                    </mxGeometry>
                </mxCell>
                <mxCell id="114" value="&lt;i&gt;SYS_TIME&lt;/i&gt;" style="text;html=1;strokeColor=none;fillColor=none;align=right;verticalAlign=middle;whiteSpace=wrap;rounded=0;labelBackgroundColor=none;fontSize=14;fontColor=#FFFFFF;" parent="1" vertex="1">
                    <mxGeometry x="30" y="145" width="90" height="40" as="geometry"/>
                </mxCell>
                <mxCell id="115" style="edgeStyle=none;rounded=0;html=1;exitX=1;exitY=0.5;exitDx=0;exitDy=0;fontColor=#333333;strokeColor=#FFFFFF;strokeWidth=2;entryX=0;entryY=0.25;entryDx=0;entryDy=0;" parent="1" source="114" target="96" edge="1">
                    <mxGeometry relative="1" as="geometry">
                        <mxPoint x="180" y="105" as="sourcePoint"/>
                        <mxPoint x="550" y="145" as="targetPoint"/>
                        <Array as="points"/>
                    </mxGeometry>
                </mxCell>
                <mxCell id="126" value="&lt;i&gt;STM_BUS&lt;/i&gt;" style="text;html=1;strokeColor=none;fillColor=none;align=right;verticalAlign=middle;whiteSpace=wrap;rounded=0;labelBackgroundColor=none;fontSize=14;fontColor=#FFFFFF;" parent="1" vertex="1">
                    <mxGeometry x="30" y="460" width="90" height="40" as="geometry"/>
                </mxCell>
                <mxCell id="127" value="&lt;i&gt;DOUT_VALID&lt;/i&gt;" style="text;html=1;strokeColor=none;fillColor=none;align=left;verticalAlign=middle;whiteSpace=wrap;rounded=0;fontFamily=Helvetica;fontSize=14;fontColor=#FFFFFF;" parent="1" vertex="1">
                    <mxGeometry x="840" y="435" width="100" height="40" as="geometry"/>
                </mxCell>
                <mxCell id="131" value="&lt;i&gt;INTENSITY&lt;/i&gt;" style="text;html=1;strokeColor=none;fillColor=none;align=left;verticalAlign=middle;whiteSpace=wrap;rounded=0;labelBackgroundColor=none;fontSize=14;fontColor=#FFFFFF;" parent="1" vertex="1">
                    <mxGeometry x="840" y="460" width="80" height="40" as="geometry"/>
                </mxCell>
                <mxCell id="132" style="edgeStyle=none;rounded=0;html=1;exitX=1;exitY=0.25;exitDx=0;exitDy=0;fontColor=#333333;strokeColor=#FFFFFF;strokeWidth=2;entryX=0;entryY=0.5;entryDx=0;entryDy=0;" parent="1" target="127" edge="1">
                    <mxGeometry relative="1" as="geometry">
                        <mxPoint x="760" y="455" as="sourcePoint"/>
                        <mxPoint x="650" y="465" as="targetPoint"/>
                    </mxGeometry>
                </mxCell>
                <mxCell id="133" style="edgeStyle=none;rounded=0;html=1;exitX=1;exitY=0.5;exitDx=0;exitDy=0;fontColor=#333333;strokeColor=#FFFFFF;strokeWidth=2;entryX=0;entryY=0.5;entryDx=0;entryDy=0;" parent="1" target="131" edge="1">
                    <mxGeometry relative="1" as="geometry">
                        <mxPoint x="760" y="480" as="sourcePoint"/>
                        <mxPoint x="850" y="460" as="targetPoint"/>
                    </mxGeometry>
                </mxCell>
                <mxCell id="134" value="" style="endArrow=none;html=1;rounded=1;labelBackgroundColor=default;fontFamily=Helvetica;fontSize=14;fontColor=#000000;strokeColor=#FFFFFF;strokeWidth=2;shape=connector;fillColor=#f5f5f5;" parent="1" edge="1">
                    <mxGeometry width="50" height="50" relative="1" as="geometry">
                        <mxPoint x="810" y="489.9999999999998" as="sourcePoint"/>
                        <mxPoint x="830" y="469.9999999999998" as="targetPoint"/>
                    </mxGeometry>
                </mxCell>
                <mxCell id="135" value="&lt;i&gt;PHASE&lt;/i&gt;" style="text;html=1;strokeColor=none;fillColor=none;align=left;verticalAlign=middle;whiteSpace=wrap;rounded=0;labelBackgroundColor=none;fontSize=14;fontColor=#FFFFFF;" parent="1" vertex="1">
                    <mxGeometry x="840" y="490" width="80" height="40" as="geometry"/>
                </mxCell>
                <mxCell id="136" style="edgeStyle=none;rounded=0;html=1;fontColor=#333333;strokeColor=#FFFFFF;strokeWidth=2;entryX=0;entryY=0.5;entryDx=0;entryDy=0;exitX=0.686;exitY=-0.005;exitDx=0;exitDy=0;exitPerimeter=0;" parent="1" source="143" target="135" edge="1">
                    <mxGeometry relative="1" as="geometry">
                        <mxPoint x="770" y="395" as="sourcePoint"/>
                        <mxPoint x="850" y="365" as="targetPoint"/>
                    </mxGeometry>
                </mxCell>
                <mxCell id="137" value="" style="endArrow=none;html=1;rounded=1;labelBackgroundColor=default;fontFamily=Helvetica;fontSize=14;fontColor=#000000;strokeColor=#FFFFFF;strokeWidth=2;shape=connector;fillColor=#f5f5f5;" parent="1" edge="1">
                    <mxGeometry width="50" height="50" relative="1" as="geometry">
                        <mxPoint x="810" y="519.9999999999998" as="sourcePoint"/>
                        <mxPoint x="830" y="499.9999999999998" as="targetPoint"/>
                    </mxGeometry>
                </mxCell>
                <mxCell id="141" value="&lt;i style=&quot;font-size: 14px;&quot;&gt;CLK&lt;/i&gt;" style="text;html=1;strokeColor=none;fillColor=none;align=right;verticalAlign=middle;whiteSpace=wrap;rounded=0;labelBackgroundColor=none;fontSize=14;fontColor=#FFFFFF;" parent="1" vertex="1">
                    <mxGeometry x="230" y="35" width="30" height="20" as="geometry"/>
                </mxCell>
                <mxCell id="142" style="edgeStyle=none;rounded=0;html=1;exitX=0.5;exitY=1;exitDx=0;exitDy=0;fontColor=#333333;strokeColor=#FFFFFF;strokeWidth=2;" parent="1" source="141" edge="1">
                    <mxGeometry relative="1" as="geometry">
                        <mxPoint x="160" y="185" as="sourcePoint"/>
                        <mxPoint x="245" y="75" as="targetPoint"/>
                    </mxGeometry>
                </mxCell>
                <mxCell id="143" value="&lt;span style=&quot;color: rgb(51, 51, 51); font-size: 14px;&quot;&gt;MUX&lt;/span&gt;" style="shape=trapezoid;perimeter=trapezoidPerimeter;whiteSpace=wrap;html=1;fixedSize=1;rotation=90;size=37.5;fillColor=#FFFFFF;" vertex="1" parent="1">
                    <mxGeometry x="620" y="420" width="160" height="120" as="geometry"/>
                </mxCell>
                <mxCell id="145" value="Focus" style="rounded=0;whiteSpace=wrap;html=1;fontFamily=Helvetica;fontSize=14;fontColor=#333333;strokeColor=none;strokeWidth=3;fillColor=#f5f5f5;" vertex="1" parent="1">
                    <mxGeometry x="340" y="320" width="120" height="120" as="geometry"/>
                </mxCell>
                <mxCell id="146" value="Gain" style="rounded=0;whiteSpace=wrap;html=1;fontFamily=Helvetica;fontSize=14;fontColor=#333333;strokeColor=none;strokeWidth=3;fillColor=#f5f5f5;" vertex="1" parent="1">
                    <mxGeometry x="340" y="520" width="120" height="120" as="geometry"/>
                </mxCell>
                <mxCell id="150" style="edgeStyle=none;rounded=0;html=1;exitX=1;exitY=0.25;exitDx=0;exitDy=0;fontColor=#333333;strokeColor=#FFFFFF;strokeWidth=2;entryX=0.1;entryY=1.003;entryDx=0;entryDy=0;entryPerimeter=0;" edge="1" parent="1" target="143" source="145">
                    <mxGeometry relative="1" as="geometry">
                        <mxPoint x="414" y="550" as="sourcePoint"/>
                        <mxPoint x="304" y="560" as="targetPoint"/>
                        <Array as="points">
                            <mxPoint x="600" y="350"/>
                            <mxPoint x="600" y="416"/>
                        </Array>
                    </mxGeometry>
                </mxCell>
                <mxCell id="151" style="edgeStyle=none;rounded=0;html=1;exitX=1;exitY=0.5;exitDx=0;exitDy=0;fontColor=#333333;strokeColor=#FFFFFF;strokeWidth=2;entryX=0.198;entryY=1.002;entryDx=0;entryDy=0;entryPerimeter=0;" edge="1" parent="1" target="143" source="145">
                    <mxGeometry relative="1" as="geometry">
                        <mxPoint x="414" y="575" as="sourcePoint"/>
                        <mxPoint x="504" y="555" as="targetPoint"/>
                        <Array as="points">
                            <mxPoint x="580" y="380"/>
                            <mxPoint x="580" y="432"/>
                        </Array>
                    </mxGeometry>
                </mxCell>
                <mxCell id="152" value="" style="endArrow=none;html=1;rounded=1;labelBackgroundColor=default;fontFamily=Helvetica;fontSize=14;fontColor=#000000;strokeColor=#FFFFFF;strokeWidth=2;shape=connector;fillColor=#f5f5f5;" edge="1" parent="1">
                    <mxGeometry width="50" height="50" relative="1" as="geometry">
                        <mxPoint x="610" y="439.9999999999998" as="sourcePoint"/>
                        <mxPoint x="630" y="419.9999999999998" as="targetPoint"/>
                    </mxGeometry>
                </mxCell>
                <mxCell id="154" style="edgeStyle=none;rounded=0;html=1;fontColor=#333333;strokeColor=#FFFFFF;strokeWidth=2;entryX=0.296;entryY=1.003;entryDx=0;entryDy=0;exitX=1;exitY=0.75;exitDx=0;exitDy=0;entryPerimeter=0;" edge="1" parent="1" target="143" source="145">
                    <mxGeometry relative="1" as="geometry">
                        <mxPoint x="414.5999999999999" y="719.7600000000002" as="sourcePoint"/>
                        <mxPoint x="504" y="575" as="targetPoint"/>
                        <Array as="points">
                            <mxPoint x="560" y="410"/>
                            <mxPoint x="560" y="447"/>
                        </Array>
                    </mxGeometry>
                </mxCell>
                <mxCell id="155" value="" style="endArrow=none;html=1;rounded=1;labelBackgroundColor=default;fontFamily=Helvetica;fontSize=14;fontColor=#000000;strokeColor=#FFFFFF;strokeWidth=2;shape=connector;fillColor=#f5f5f5;" edge="1" parent="1">
                    <mxGeometry width="50" height="50" relative="1" as="geometry">
                        <mxPoint x="610" y="459.9999999999998" as="sourcePoint"/>
                        <mxPoint x="630" y="439.9999999999998" as="targetPoint"/>
                    </mxGeometry>
                </mxCell>
                <mxCell id="158" value="&lt;span style=&quot;font-style: normal;&quot;&gt;DOUT_VALID&lt;/span&gt;" style="text;html=1;strokeColor=none;fillColor=none;align=center;verticalAlign=middle;whiteSpace=wrap;rounded=0;fontFamily=Helvetica;fontSize=14;fontColor=#FFFFFF;fontStyle=2" vertex="1" parent="1">
                    <mxGeometry x="460" y="320" width="100" height="30" as="geometry"/>
                </mxCell>
                <mxCell id="160" value="INTENSITY" style="text;html=1;strokeColor=none;fillColor=none;align=center;verticalAlign=middle;whiteSpace=wrap;rounded=0;fontFamily=Helvetica;fontSize=14;fontColor=#FFFFFF;" vertex="1" parent="1">
                    <mxGeometry x="460" y="350" width="90" height="30" as="geometry"/>
                </mxCell>
                <mxCell id="161" value="PHASE" style="text;html=1;strokeColor=none;fillColor=none;align=center;verticalAlign=middle;whiteSpace=wrap;rounded=0;fontFamily=Helvetica;fontSize=14;fontColor=#FFFFFF;" vertex="1" parent="1">
                    <mxGeometry x="460" y="380" width="60" height="30" as="geometry"/>
                </mxCell>
                <mxCell id="163" style="edgeStyle=none;rounded=0;html=1;fontColor=#333333;strokeColor=#FFFFFF;strokeWidth=2;entryX=0.696;entryY=0.998;entryDx=0;entryDy=0;exitX=1;exitY=0.25;exitDx=0;exitDy=0;entryPerimeter=0;" edge="1" parent="1" source="146" target="143">
                    <mxGeometry relative="1" as="geometry">
                        <mxPoint x="220" y="830" as="sourcePoint"/>
                        <mxPoint x="440" y="829.9999999999998" as="targetPoint"/>
                        <Array as="points">
                            <mxPoint x="560" y="550"/>
                            <mxPoint x="560" y="510"/>
                        </Array>
                    </mxGeometry>
                </mxCell>
                <mxCell id="164" style="edgeStyle=none;rounded=0;html=1;fontColor=#333333;strokeColor=#FFFFFF;strokeWidth=2;entryX=0.803;entryY=1.002;entryDx=0;entryDy=0;exitX=1;exitY=0.5;exitDx=0;exitDy=0;entryPerimeter=0;" edge="1" parent="1" source="146" target="143">
                    <mxGeometry relative="1" as="geometry">
                        <mxPoint x="370" y="559.9999999999998" as="sourcePoint"/>
                        <mxPoint x="650.2400000000002" y="521.3599999999999" as="targetPoint"/>
                        <Array as="points">
                            <mxPoint x="580" y="580"/>
                            <mxPoint x="580" y="528"/>
                        </Array>
                    </mxGeometry>
                </mxCell>
                <mxCell id="165" style="edgeStyle=none;rounded=0;html=1;fontColor=#333333;strokeColor=#FFFFFF;strokeWidth=2;entryX=0.902;entryY=0.998;entryDx=0;entryDy=0;exitX=1;exitY=0.75;exitDx=0;exitDy=0;entryPerimeter=0;" edge="1" parent="1" source="146" target="143">
                    <mxGeometry relative="1" as="geometry">
                        <mxPoint x="370" y="590" as="sourcePoint"/>
                        <mxPoint x="650" y="538.6400000000001" as="targetPoint"/>
                        <Array as="points">
                            <mxPoint x="600" y="610"/>
                            <mxPoint x="600" y="544"/>
                        </Array>
                    </mxGeometry>
                </mxCell>
                <mxCell id="167" value="&lt;span style=&quot;font-style: normal;&quot;&gt;DOUT_VALID&lt;/span&gt;" style="text;html=1;strokeColor=none;fillColor=none;align=center;verticalAlign=middle;whiteSpace=wrap;rounded=0;fontFamily=Helvetica;fontSize=14;fontColor=#FFFFFF;fontStyle=2" vertex="1" parent="1">
                    <mxGeometry x="460" y="520" width="100" height="30" as="geometry"/>
                </mxCell>
                <mxCell id="168" value="INTENSITY" style="text;html=1;strokeColor=none;fillColor=none;align=center;verticalAlign=middle;whiteSpace=wrap;rounded=0;fontFamily=Helvetica;fontSize=14;fontColor=#FFFFFF;" vertex="1" parent="1">
                    <mxGeometry x="460" y="550" width="90" height="30" as="geometry"/>
                </mxCell>
                <mxCell id="169" value="PHASE" style="text;html=1;strokeColor=none;fillColor=none;align=center;verticalAlign=middle;whiteSpace=wrap;rounded=0;fontFamily=Helvetica;fontSize=14;fontColor=#FFFFFF;" vertex="1" parent="1">
                    <mxGeometry x="460" y="580" width="60" height="30" as="geometry"/>
                </mxCell>
                <mxCell id="170" value="" style="shape=flexArrow;endArrow=classic;html=1;rounded=0;labelBackgroundColor=default;fontFamily=Helvetica;fontSize=14;fontColor=#000000;strokeColor=none;strokeWidth=1;jumpStyle=arc;fillColor=#f5f5f5;entryX=0;entryY=0.5;entryDx=0;entryDy=0;startArrow=block;" edge="1" parent="1" target="145">
                    <mxGeometry width="50" height="50" relative="1" as="geometry">
                        <mxPoint x="120" y="479.4699999999998" as="sourcePoint"/>
                        <mxPoint x="600" y="479.4699999999998" as="targetPoint"/>
                        <Array as="points">
                            <mxPoint x="200" y="480"/>
                            <mxPoint x="200" y="380"/>
                        </Array>
                    </mxGeometry>
                </mxCell>
                <mxCell id="171" value="" style="shape=flexArrow;endArrow=classic;html=1;rounded=0;labelBackgroundColor=default;fontFamily=Helvetica;fontSize=14;fontColor=#000000;strokeColor=none;strokeWidth=1;jumpStyle=arc;fillColor=#f5f5f5;entryX=0;entryY=0.5;entryDx=0;entryDy=0;startArrow=block;" edge="1" parent="1" target="146">
                    <mxGeometry width="50" height="50" relative="1" as="geometry">
                        <mxPoint x="120" y="479.4699999999998" as="sourcePoint"/>
                        <mxPoint x="240" y="380" as="targetPoint"/>
                        <Array as="points">
                            <mxPoint x="200" y="480"/>
                            <mxPoint x="200" y="580"/>
                        </Array>
                    </mxGeometry>
                </mxCell>
                <mxCell id="172" value="" style="endArrow=none;html=1;rounded=1;labelBackgroundColor=default;fontFamily=Helvetica;fontSize=14;fontColor=#000000;strokeColor=#FFFFFF;strokeWidth=2;shape=connector;fillColor=#f5f5f5;" edge="1" parent="1">
                    <mxGeometry width="50" height="50" relative="1" as="geometry">
                        <mxPoint x="611" y="537.9999999999998" as="sourcePoint"/>
                        <mxPoint x="631" y="517.9999999999998" as="targetPoint"/>
                    </mxGeometry>
                </mxCell>
                <mxCell id="173" value="" style="endArrow=none;html=1;rounded=1;labelBackgroundColor=default;fontFamily=Helvetica;fontSize=14;fontColor=#000000;strokeColor=#FFFFFF;strokeWidth=2;shape=connector;fillColor=#f5f5f5;" edge="1" parent="1">
                    <mxGeometry width="50" height="50" relative="1" as="geometry">
                        <mxPoint x="610" y="554.9999999999998" as="sourcePoint"/>
                        <mxPoint x="630" y="534.9999999999998" as="targetPoint"/>
                    </mxGeometry>
                </mxCell>
            </root>
        </mxGraphModel>
    </diagram>
</mxfile>